<svg width="375" height="26" viewBox="0 0 375 26" fill="none" xmlns="http://www.w3.org/2000/svg">
<path fill-rule="evenodd" clip-rule="evenodd" d="M99.7502 6.20493H101.467V4.48851H103.181V2.77447H104.892V1.06042H99.7502V6.20493Z" fill="white"/>
<path fill-rule="evenodd" clip-rule="evenodd" d="M125.47 4.48851H123.756V2.77447H122.04V1.06042H110.042V2.77447H108.328V4.48851H106.606V6.20493H104.902V19.9149H106.606V21.6313H108.323V23.3453H110.037V25.0594H122.035V23.3453H123.752V21.6313H125.466V19.9173H127.187V6.20493H125.47V4.48851ZM122.045 16.4892H120.331V18.2008H118.617V19.9149H113.474V18.2008H111.76V16.4868H110.044V9.63063H111.76V7.91659H113.474V6.20255H118.617V7.91659H120.331V9.63063H122.045V16.4892Z" fill="white"/>
<path fill-rule="evenodd" clip-rule="evenodd" d="M103.181 21.6337H101.467V19.9173H99.7502V25.0594H104.892V23.3453H103.181V21.6337Z" fill="white"/>
<path fill-rule="evenodd" clip-rule="evenodd" d="M155.849 21.6337H154.135V23.3453H152.424V25.0594H157.566V19.9173H155.849V21.6337Z" fill="white"/>
<path fill-rule="evenodd" clip-rule="evenodd" d="M152.424 1.06042V2.77447H154.135V4.48613H155.849V6.20255H157.566V1.06042H152.424Z" fill="white"/>
<path fill-rule="evenodd" clip-rule="evenodd" d="M151.179 4.48851H149.465V2.77447H147.75V1.06042H134.036V2.77447H132.322V4.48851H130.605V6.20493H130.615V13.0611H132.329V14.7751H135.759V16.4892H146.044V18.2032H144.33V19.9173H137.473V18.2032H135.759V16.4892H130.608V21.6337H132.284V23.3477H133.981V25.0618H147.696V23.3477H149.424V21.6337H151.171V14.7751H149.472V13.0611H147.758V11.3447H137.473V9.63063H135.759V7.91897H137.473V6.20493H144.33V7.91897H146.044V9.63301H151.188V6.20493H151.179V4.48851Z" fill="white"/>
<path fill-rule="evenodd" clip-rule="evenodd" d="M7.33237 19.1983V16.1678L7.93705 15.5607H16.731V10.3115H7.81326L7.33237 9.82822V6.7977L7.73708 6.393H19.5092V1.06757H0.978516V25.038H19.8496V19.7101H7.84182L7.33237 19.1983Z" fill="white"/>
<path fill-rule="evenodd" clip-rule="evenodd" d="M27.7985 19.2031V1.08899H21.3304V25.0594H39.6682V19.7316H28.3294L27.7985 19.2031Z" fill="white"/>
<path d="M47.46 1.08899H40.9919V25.0618H47.46V1.08899Z" fill="white"/>
<path fill-rule="evenodd" clip-rule="evenodd" d="M57.6276 19.0317L68.8855 6.11208V1.08899H48.986V6.4168H60.113V7.06195L48.8693 20.1529V25.0618H69.1879V19.734H57.6276V19.0317Z" fill="white"/>
<path fill-rule="evenodd" clip-rule="evenodd" d="M79.5388 1.08899L69.9877 25.0618H76.494L78.1104 20.8528L78.8627 20.4196H87.0996L87.7924 20.8195L89.4278 25.0594H96.3149L86.7639 1.08899H79.5388ZM85.1522 15.5822H80.8243L80.3244 15.0822L82.6835 8.5046H83.2382L85.6189 15.1227L85.1522 15.5822Z" fill="white"/>
<path d="M353.699 25.062V1.06189H359.674L366.79 13.1123C367.159 13.7836 368.435 16.1669 368.435 16.1669H368.502C368.502 16.1669 368.435 13.2802 368.435 12.441V1.06189H374.242V25.062H368.267L361.218 13.1795C360.815 12.5417 359.506 9.95705 359.506 9.95705H359.439C359.439 9.95705 359.506 13.0452 359.506 13.8843V25.062H353.699Z" fill="white"/>
<path d="M339.531 20.799C343.425 20.799 345.338 17.4759 345.338 13.1123C345.338 8.74862 343.425 5.39195 339.531 5.39195C335.671 5.39195 333.69 8.74862 333.69 13.1123C333.69 17.4759 335.671 20.799 339.531 20.799ZM339.497 25.6326C332.247 25.6326 327.648 20.2955 327.648 13.1123C327.648 5.92902 332.247 0.591919 339.497 0.591919C346.781 0.591919 351.38 5.92902 351.38 13.1123C351.38 20.2955 346.781 25.6326 339.497 25.6326Z" fill="white"/>
<path d="M319.379 25.062V1.06189H325.32V25.062H319.379Z" fill="white"/>
<path d="M304.142 25.062V6.09689H297.16V1.06189H317.132V6.09689H310.083V25.062H304.142Z" fill="white"/>
<path d="M276.168 25.062L284.795 1.06189H290.904L299.564 25.062H293.321L291.911 20.7319H283.519L282.143 25.062H276.168ZM284.895 16.469H290.535L288.722 10.662C288.319 9.41999 287.782 7.27172 287.782 7.27172H287.715C287.715 7.27172 287.144 9.41999 286.741 10.662L284.895 16.469Z" fill="white"/>
<path d="M261.629 20.0606H265.12C269.013 20.0606 271.027 17.6102 271.027 13.213C271.027 8.84935 268.913 6.02975 265.187 6.02975H261.629V20.0606ZM255.688 25.062V1.06189H265.925C272.572 1.06189 277.036 5.86192 277.036 13.213C277.036 17.4424 275.559 20.8326 272.874 22.8802C270.994 24.29 268.577 25.062 265.556 25.062H255.688Z" fill="white"/>
<path d="M231.855 25.062V1.06189H237.83L244.946 13.1123C245.316 13.7836 246.591 16.1669 246.591 16.1669H246.658C246.658 16.1669 246.591 13.2802 246.591 12.441V1.06189H252.398V25.062H246.423L239.374 13.1795C238.972 12.5417 237.663 9.95705 237.663 9.95705H237.595C237.595 9.95705 237.663 13.0452 237.663 13.8843V25.062H231.855Z" fill="white"/>
<path d="M218.746 25.4984C212.032 25.4984 208.676 22.2089 208.676 16.6032V1.06189H214.617V16.8046C214.617 19.1543 215.825 20.7319 218.746 20.7319C221.498 20.7319 222.807 19.0536 222.807 16.7039V1.06189H228.749V16.6032C228.749 22.1417 225.426 25.4984 218.746 25.4984Z" fill="white"/>
<path d="M194.676 20.799C198.569 20.799 200.483 17.4759 200.483 13.1123C200.483 8.74862 198.569 5.39195 194.676 5.39195C190.815 5.39195 188.835 8.74862 188.835 13.1123C188.835 17.4759 190.815 20.799 194.676 20.799ZM194.642 25.6326C187.392 25.6326 182.793 20.2955 182.793 13.1123C182.793 5.92902 187.392 0.591919 194.642 0.591919C201.926 0.591919 206.525 5.92902 206.525 13.1123C206.525 20.2955 201.926 25.6326 194.642 25.6326Z" fill="white"/>
<path d="M164.23 25.062V1.06189H182.088V6.06332H170.172V10.9305H180.141V15.7305H170.172V25.062H164.23Z" fill="white"/>
</svg>
